<svg width="101" height="101" viewBox="0 0 101 101" fill="none" xmlns="http://www.w3.org/2000/svg">
<path d="M88.5068 0C95.1342 3.49453e-05 100.507 5.3726 100.507 12V100.507H0V0H88.5068Z" stroke="black"/>
<path d="M13.6941 29.147L50.2534 50.2953L86.8127 29.147M50.2534 92.4662V50.2534M87.9434 67.0045V33.5023C87.9419 32.0335 87.5542 30.591 86.8192 29.3193C86.0841 28.0477 85.0276 26.9918 83.7556 26.2574L54.4412 9.50627C53.1679 8.77116 51.7236 8.38416 50.2534 8.38416C48.7832 8.38416 47.3389 8.77116 46.0656 9.50627L16.7511 26.2574C15.4791 26.9918 14.4226 28.0477 13.6876 29.3193C12.9526 30.591 12.5649 32.0335 12.5634 33.5023V67.0045C12.5649 68.4733 12.9526 69.9158 13.6876 71.1874C14.4226 72.459 15.4791 73.515 16.7511 74.2494L46.0656 91.0005C47.3389 91.7356 48.7832 92.1226 50.2534 92.1226C51.7236 92.1226 53.1679 91.7356 54.4412 91.0005L83.7556 74.2494C85.0276 73.515 86.0841 72.459 86.8192 71.1874C87.5542 69.9158 87.9419 68.4733 87.9434 67.0045Z" stroke="#E6E6E6" stroke-width="3" stroke-linecap="round" stroke-linejoin="round"/>
</svg>
