<svg width="101" height="101" viewBox="0 0 101 101" fill="none" xmlns="http://www.w3.org/2000/svg">
<path d="M88.5068 0C95.1342 3.49453e-05 100.507 5.3726 100.507 12V100.507H0V0H88.5068Z" stroke="black"/>
<path d="M50.2534 33.5022C57.1919 33.5022 62.8167 27.8774 62.8167 20.9389C62.8167 14.0003 57.1919 8.37555 50.2534 8.37555C43.3148 8.37555 37.69 14.0003 37.69 20.9389C37.69 27.8774 43.3148 33.5022 50.2534 33.5022ZM50.2534 33.5022V92.1312M50.2534 92.1312C39.1467 92.1312 28.4949 87.7191 20.6413 79.8654C12.7877 72.0118 8.37555 61.36 8.37555 50.2534H20.9389M50.2534 92.1312C61.36 92.1312 72.0118 87.7191 79.8654 79.8654C87.7191 72.0118 92.1312 61.36 92.1312 50.2534H79.5678" stroke="#E6E6E6" stroke-width="3" stroke-linecap="round" stroke-linejoin="round"/>
</svg>
