<svg width="101" height="101" viewBox="0 0 101 101" fill="none" xmlns="http://www.w3.org/2000/svg">
<path d="M50.2533 33.5022C57.1918 33.5022 62.8166 27.8774 62.8166 20.9389C62.8166 14.0003 57.1918 8.37555 50.2533 8.37555C43.3148 8.37555 37.69 14.0003 37.69 20.9389C37.69 27.8774 43.3148 33.5022 50.2533 33.5022ZM50.2533 33.5022V92.1312M50.2533 92.1312C39.1466 92.1312 28.4948 87.7191 20.6412 79.8654C12.7876 72.0118 8.37549 61.36 8.37549 50.2534H20.9388M50.2533 92.1312C61.36 92.1312 72.0118 87.7191 79.8654 79.8654C87.719 72.0118 92.1311 61.36 92.1311 50.2534H79.5678" stroke="#0E2745" stroke-width="3" stroke-linecap="round" stroke-linejoin="round"/>
</svg>
