<svg width="101" height="101" viewBox="0 0 101 101" fill="none" xmlns="http://www.w3.org/2000/svg">
<path d="M13.6942 29.147L50.2535 50.2953L86.8128 29.147M50.2535 92.4662V50.2534M87.9435 67.0045V33.5023C87.942 32.0335 87.5543 30.591 86.8193 29.3193C86.0842 28.0477 85.0277 26.9918 83.7558 26.2574L54.4413 9.50627C53.168 8.77116 51.7237 8.38416 50.2535 8.38416C48.7833 8.38416 47.339 8.77116 46.0657 9.50627L16.7513 26.2574C15.4793 26.9918 14.4228 28.0477 13.6877 29.3193C12.9527 30.591 12.565 32.0335 12.5635 33.5023V67.0045C12.565 68.4733 12.9527 69.9158 13.6877 71.1874C14.4228 72.459 15.4793 73.515 16.7513 74.2494L46.0657 91.0005C47.339 91.7356 48.7833 92.1226 50.2535 92.1226C51.7237 92.1226 53.168 91.7356 54.4413 91.0005L83.7558 74.2494C85.0277 73.515 86.0842 72.459 86.8193 71.1874C87.5543 69.9158 87.942 68.4733 87.9435 67.0045Z" stroke="#0E2745" stroke-width="3" stroke-linecap="round" stroke-linejoin="round"/>
</svg>
